<mxfile host="65bd71144e">
    <diagram id="l7damULoXh7aLWjeg3UF" name="Page-1">
        <mxGraphModel dx="514" dy="1083" grid="1" gridSize="10" guides="1" tooltips="1" connect="1" arrows="1" fold="1" page="1" pageScale="1" pageWidth="850" pageHeight="1100" math="0" shadow="0">
            <root>
                <mxCell id="0"/>
                <mxCell id="1" parent="0"/>
                <mxCell id="51" value="" style="rounded=0;whiteSpace=wrap;html=1;" parent="1" vertex="1">
                    <mxGeometry width="750" height="750" as="geometry"/>
                </mxCell>
                <mxCell id="32" value="" style="shape=hexagon;perimeter=hexagonPerimeter2;whiteSpace=wrap;html=1;fillColor=#0050ef;strokeColor=#001DBC;fontColor=#ffffff;" parent="1" vertex="1">
                    <mxGeometry x="10" y="60" width="730" height="680" as="geometry"/>
                </mxCell>
                <mxCell id="33" value="" style="shape=hexagon;perimeter=hexagonPerimeter2;whiteSpace=wrap;html=1;fillColor=#008a00;strokeColor=#005700;fontColor=#ffffff;" parent="1" vertex="1">
                    <mxGeometry x="80" y="120" width="590" height="557.5" as="geometry"/>
                </mxCell>
                <mxCell id="34" value="" style="shape=hexagon;perimeter=hexagonPerimeter2;whiteSpace=wrap;html=1;fillColor=#60a917;strokeColor=#2D7600;fontColor=#ffffff;" parent="1" vertex="1">
                    <mxGeometry x="165" y="195" width="420" height="395" as="geometry"/>
                </mxCell>
                <mxCell id="35" value="" style="shape=hexagon;perimeter=hexagonPerimeter2;whiteSpace=wrap;html=1;fillColor=#6a00ff;strokeColor=#3700CC;fontColor=#ffffff;" parent="1" vertex="1">
                    <mxGeometry x="225" y="263.75" width="300" height="270" as="geometry"/>
                </mxCell>
                <mxCell id="36" value="Server.Base" style="shape=hexagon;perimeter=hexagonPerimeter2;whiteSpace=wrap;html=1;fillColor=#1ba1e2;strokeColor=#006EAF;fontColor=#ffffff;" parent="1" vertex="1">
                    <mxGeometry x="330" y="347.5" width="90" height="90" as="geometry"/>
                </mxCell>
                <mxCell id="37" value="Server.Base.Framework" style="text;html=1;strokeColor=none;fillColor=none;align=center;verticalAlign=middle;whiteSpace=wrap;rounded=0;" parent="1" vertex="1">
                    <mxGeometry x="325" y="510" width="100" height="20" as="geometry"/>
                </mxCell>
                <mxCell id="38" value="Server.Base.Framework.DISS" style="text;html=1;strokeColor=none;fillColor=none;align=center;verticalAlign=middle;whiteSpace=wrap;rounded=0;" parent="1" vertex="1">
                    <mxGeometry x="315" y="550" width="120" height="20" as="geometry"/>
                </mxCell>
                <mxCell id="39" value="Server.Base.Framework.DISS.Front" style="text;html=1;strokeColor=none;fillColor=none;align=center;verticalAlign=middle;whiteSpace=wrap;rounded=0;" parent="1" vertex="1">
                    <mxGeometry x="315" y="620" width="140" height="20" as="geometry"/>
                </mxCell>
                <mxCell id="40" value="Server.Base.Framework.DISS.Front.SINPE" style="text;html=1;strokeColor=none;fillColor=none;align=center;verticalAlign=middle;whiteSpace=wrap;rounded=0;" parent="1" vertex="1">
                    <mxGeometry x="310.5" y="690" width="140" height="20" as="geometry"/>
                </mxCell>
                <mxCell id="41" value="Server.Base.Core" style="text;html=1;strokeColor=none;fillColor=none;align=center;verticalAlign=middle;whiteSpace=wrap;rounded=0;rotation=60;" parent="1" vertex="1">
                    <mxGeometry x="230" y="440" width="100" height="20" as="geometry"/>
                </mxCell>
                <mxCell id="42" value="Server.Base.Net" style="text;html=1;strokeColor=none;fillColor=none;align=center;verticalAlign=middle;whiteSpace=wrap;rounded=0;rotation=-60;" parent="1" vertex="1">
                    <mxGeometry x="420" y="450" width="100" height="20" as="geometry"/>
                </mxCell>
                <mxCell id="43" value="Server.Base.Framework.DISI" style="text;html=1;strokeColor=none;fillColor=none;align=center;verticalAlign=middle;whiteSpace=wrap;rounded=0;rotation=-58;" parent="1" vertex="1">
                    <mxGeometry x="465" y="460" width="120" height="20" as="geometry"/>
                </mxCell>
                <mxCell id="44" value="Server.Base.Framework.DISS.Middle" style="text;html=1;strokeColor=none;fillColor=none;align=center;verticalAlign=middle;whiteSpace=wrap;rounded=0;rotation=60;" parent="1" vertex="1">
                    <mxGeometry x="125" y="510" width="140" height="20" as="geometry"/>
                </mxCell>
                <mxCell id="45" value="Server.Base.Framework.DISS.Front.Monedero" style="text;html=1;strokeColor=none;fillColor=none;align=center;verticalAlign=middle;whiteSpace=wrap;rounded=0;rotation=60;" parent="1" vertex="1">
                    <mxGeometry x="65" y="560" width="140" height="20" as="geometry"/>
                </mxCell>
                <mxCell id="46" value="&lt;h1&gt;Ejemplo Aplicado&lt;/h1&gt;&lt;p&gt;&lt;br&gt;&lt;/p&gt;" style="text;html=1;strokeColor=none;fillColor=none;spacing=5;spacingTop=-20;whiteSpace=wrap;overflow=hidden;rounded=0;" parent="1" vertex="1">
                    <mxGeometry x="55" y="20" width="560" height="40" as="geometry"/>
                </mxCell>
            </root>
        </mxGraphModel>
    </diagram>
</mxfile>